<mxfile host="Electron" modified="2023-09-24T23:17:54.124Z" agent="Mozilla/5.0 (X11; Linux x86_64) AppleWebKit/537.36 (KHTML, like Gecko) draw.io/21.7.5 Chrome/114.0.5735.289 Electron/25.8.1 Safari/537.36" etag="fuFnCrbFdphiyQONyUrg" version="21.7.5" type="device">
  <diagram name="Quemador de Tarjetas" id="ZA_k795T3_q9t3z8iQC4">
    <mxGraphModel dx="607" dy="366" grid="1" gridSize="10" guides="1" tooltips="1" connect="1" arrows="1" fold="1" page="1" pageScale="1" pageWidth="827" pageHeight="1169" math="0" shadow="0">
      <root>
        <mxCell id="0" />
        <mxCell id="1" parent="0" />
        <mxCell id="cPWBTvRZ6FCTpw4stsLJ-1" value="Arduino UNO" style="rounded=0;whiteSpace=wrap;html=1;" vertex="1" parent="1">
          <mxGeometry x="200" y="360" width="160" height="400" as="geometry" />
        </mxCell>
        <mxCell id="77xczpekr69eY9lPC2OG-4" value="" style="shape=flexArrow;endArrow=classic;html=1;rounded=0;fillColor=#0050ef;strokeColor=#001DBC;" parent="1" edge="1">
          <mxGeometry width="50" height="50" relative="1" as="geometry">
            <mxPoint x="80" y="40" as="sourcePoint" />
            <mxPoint x="80" y="1164" as="targetPoint" />
          </mxGeometry>
        </mxCell>
        <mxCell id="77xczpekr69eY9lPC2OG-3" value="" style="shape=flexArrow;endArrow=classic;html=1;rounded=0;fillColor=#a20025;strokeColor=#6F0000;" parent="1" edge="1">
          <mxGeometry width="50" height="50" relative="1" as="geometry">
            <mxPoint x="40" y="40" as="sourcePoint" />
            <mxPoint x="40" y="1164" as="targetPoint" />
          </mxGeometry>
        </mxCell>
        <mxCell id="77xczpekr69eY9lPC2OG-7" value="5 ~ 24 vcd" style="text;html=1;strokeColor=none;fillColor=none;align=center;verticalAlign=middle;whiteSpace=wrap;rounded=0;" parent="1" vertex="1">
          <mxGeometry x="30" y="10" width="60" height="30" as="geometry" />
        </mxCell>
        <mxCell id="cPWBTvRZ6FCTpw4stsLJ-4" value="" style="endArrow=none;html=1;rounded=0;fillColor=#a20025;strokeColor=#6F0000;strokeWidth=4;" edge="1" parent="1">
          <mxGeometry width="50" height="50" relative="1" as="geometry">
            <mxPoint x="210" y="380" as="sourcePoint" />
            <mxPoint x="40" y="380" as="targetPoint" />
          </mxGeometry>
        </mxCell>
        <mxCell id="cPWBTvRZ6FCTpw4stsLJ-5" value="" style="endArrow=none;html=1;rounded=0;fillColor=#0050ef;strokeColor=#001DBC;strokeWidth=4;" edge="1" parent="1">
          <mxGeometry width="50" height="50" relative="1" as="geometry">
            <mxPoint x="210" y="370" as="sourcePoint" />
            <mxPoint x="80" y="370" as="targetPoint" />
          </mxGeometry>
        </mxCell>
        <mxCell id="cPWBTvRZ6FCTpw4stsLJ-8" value="RC522" style="rounded=0;whiteSpace=wrap;html=1;" vertex="1" parent="1">
          <mxGeometry x="520" y="360" width="160" height="240" as="geometry" />
        </mxCell>
        <mxCell id="cPWBTvRZ6FCTpw4stsLJ-12" value="3 ~ 3.3 vcd" style="text;html=1;strokeColor=none;fillColor=none;align=center;verticalAlign=middle;whiteSpace=wrap;rounded=0;" vertex="1" parent="1">
          <mxGeometry x="295" y="360" width="60" height="30" as="geometry" />
        </mxCell>
        <mxCell id="cPWBTvRZ6FCTpw4stsLJ-13" value="" style="endArrow=none;html=1;rounded=0;fillColor=#a20025;strokeColor=#6F0000;strokeWidth=4;exitX=0;exitY=0.75;exitDx=0;exitDy=0;entryX=1;entryY=0.75;entryDx=0;entryDy=0;" edge="1" parent="1" source="cPWBTvRZ6FCTpw4stsLJ-31" target="cPWBTvRZ6FCTpw4stsLJ-12">
          <mxGeometry width="50" height="50" relative="1" as="geometry">
            <mxPoint x="540" y="380" as="sourcePoint" />
            <mxPoint x="350" y="380" as="targetPoint" />
          </mxGeometry>
        </mxCell>
        <mxCell id="cPWBTvRZ6FCTpw4stsLJ-14" value="" style="endArrow=none;html=1;rounded=0;fillColor=#0050ef;strokeColor=#001DBC;strokeWidth=4;exitX=0;exitY=0.25;exitDx=0;exitDy=0;entryX=1;entryY=0.25;entryDx=0;entryDy=0;" edge="1" parent="1" source="cPWBTvRZ6FCTpw4stsLJ-31" target="cPWBTvRZ6FCTpw4stsLJ-12">
          <mxGeometry width="50" height="50" relative="1" as="geometry">
            <mxPoint x="540" y="370" as="sourcePoint" />
            <mxPoint x="350" y="370" as="targetPoint" />
          </mxGeometry>
        </mxCell>
        <mxCell id="cPWBTvRZ6FCTpw4stsLJ-15" value="" style="endArrow=none;html=1;rounded=0;strokeWidth=4;fillColor=#008a00;strokeColor=#005700;entryX=1;entryY=0.5;entryDx=0;entryDy=0;exitX=0;exitY=0.5;exitDx=0;exitDy=0;" edge="1" parent="1" source="cPWBTvRZ6FCTpw4stsLJ-21" target="cPWBTvRZ6FCTpw4stsLJ-27">
          <mxGeometry width="50" height="50" relative="1" as="geometry">
            <mxPoint x="540" y="459.71" as="sourcePoint" />
            <mxPoint x="350" y="459.71" as="targetPoint" />
          </mxGeometry>
        </mxCell>
        <mxCell id="cPWBTvRZ6FCTpw4stsLJ-16" value="" style="endArrow=none;html=1;rounded=0;strokeWidth=4;fillColor=#e3c800;strokeColor=#B09500;entryX=1;entryY=0.5;entryDx=0;entryDy=0;exitX=0;exitY=0.5;exitDx=0;exitDy=0;" edge="1" parent="1" source="cPWBTvRZ6FCTpw4stsLJ-24" target="cPWBTvRZ6FCTpw4stsLJ-29">
          <mxGeometry width="50" height="50" relative="1" as="geometry">
            <mxPoint x="540" y="499.71" as="sourcePoint" />
            <mxPoint x="350" y="499.71" as="targetPoint" />
          </mxGeometry>
        </mxCell>
        <mxCell id="cPWBTvRZ6FCTpw4stsLJ-17" value="" style="endArrow=none;html=1;rounded=0;strokeWidth=4;fillColor=#76608a;strokeColor=#432D57;exitX=0;exitY=0.5;exitDx=0;exitDy=0;entryX=1;entryY=0.5;entryDx=0;entryDy=0;" edge="1" parent="1" source="cPWBTvRZ6FCTpw4stsLJ-23" target="cPWBTvRZ6FCTpw4stsLJ-28">
          <mxGeometry width="50" height="50" relative="1" as="geometry">
            <mxPoint x="540" y="479.71" as="sourcePoint" />
            <mxPoint x="350" y="479.71" as="targetPoint" />
          </mxGeometry>
        </mxCell>
        <mxCell id="cPWBTvRZ6FCTpw4stsLJ-18" value="" style="endArrow=none;html=1;rounded=0;strokeWidth=4;strokeColor=#000000;entryX=1;entryY=0.5;entryDx=0;entryDy=0;exitX=0;exitY=0.5;exitDx=0;exitDy=0;" edge="1" parent="1" source="cPWBTvRZ6FCTpw4stsLJ-20" target="cPWBTvRZ6FCTpw4stsLJ-26">
          <mxGeometry width="50" height="50" relative="1" as="geometry">
            <mxPoint x="540" y="420" as="sourcePoint" />
            <mxPoint x="350" y="420" as="targetPoint" />
          </mxGeometry>
        </mxCell>
        <mxCell id="cPWBTvRZ6FCTpw4stsLJ-19" value="" style="endArrow=none;html=1;rounded=0;strokeWidth=4;strokeColor=#616161;exitX=0;exitY=0.5;exitDx=0;exitDy=0;entryX=1;entryY=0.5;entryDx=0;entryDy=0;" edge="1" parent="1" source="cPWBTvRZ6FCTpw4stsLJ-25" target="cPWBTvRZ6FCTpw4stsLJ-30">
          <mxGeometry width="50" height="50" relative="1" as="geometry">
            <mxPoint x="540" y="519.71" as="sourcePoint" />
            <mxPoint x="350" y="519.71" as="targetPoint" />
          </mxGeometry>
        </mxCell>
        <mxCell id="cPWBTvRZ6FCTpw4stsLJ-20" value="RST" style="text;html=1;strokeColor=none;fillColor=none;align=center;verticalAlign=middle;whiteSpace=wrap;rounded=0;" vertex="1" parent="1">
          <mxGeometry x="530" y="410" width="50" height="20" as="geometry" />
        </mxCell>
        <mxCell id="cPWBTvRZ6FCTpw4stsLJ-21" value="SDA" style="text;html=1;strokeColor=none;fillColor=none;align=center;verticalAlign=middle;whiteSpace=wrap;rounded=0;" vertex="1" parent="1">
          <mxGeometry x="530" y="450" width="50" height="20" as="geometry" />
        </mxCell>
        <mxCell id="cPWBTvRZ6FCTpw4stsLJ-23" value="MOSI" style="text;html=1;strokeColor=none;fillColor=none;align=center;verticalAlign=middle;whiteSpace=wrap;rounded=0;" vertex="1" parent="1">
          <mxGeometry x="530" y="470" width="50" height="20" as="geometry" />
        </mxCell>
        <mxCell id="cPWBTvRZ6FCTpw4stsLJ-24" value="MISO" style="text;html=1;strokeColor=none;fillColor=none;align=center;verticalAlign=middle;whiteSpace=wrap;rounded=0;" vertex="1" parent="1">
          <mxGeometry x="530" y="490" width="50" height="20" as="geometry" />
        </mxCell>
        <mxCell id="cPWBTvRZ6FCTpw4stsLJ-25" value="SCK" style="text;html=1;strokeColor=none;fillColor=none;align=center;verticalAlign=middle;whiteSpace=wrap;rounded=0;" vertex="1" parent="1">
          <mxGeometry x="530" y="510" width="50" height="20" as="geometry" />
        </mxCell>
        <mxCell id="cPWBTvRZ6FCTpw4stsLJ-26" value="PIN 9" style="text;html=1;strokeColor=none;fillColor=none;align=center;verticalAlign=middle;whiteSpace=wrap;rounded=0;" vertex="1" parent="1">
          <mxGeometry x="305" y="410" width="50" height="20" as="geometry" />
        </mxCell>
        <mxCell id="cPWBTvRZ6FCTpw4stsLJ-27" value="PIN 10" style="text;html=1;strokeColor=none;fillColor=none;align=center;verticalAlign=middle;whiteSpace=wrap;rounded=0;" vertex="1" parent="1">
          <mxGeometry x="305" y="450" width="50" height="20" as="geometry" />
        </mxCell>
        <mxCell id="cPWBTvRZ6FCTpw4stsLJ-28" value="PIN 11" style="text;html=1;strokeColor=none;fillColor=none;align=center;verticalAlign=middle;whiteSpace=wrap;rounded=0;" vertex="1" parent="1">
          <mxGeometry x="305" y="470" width="50" height="20" as="geometry" />
        </mxCell>
        <mxCell id="cPWBTvRZ6FCTpw4stsLJ-29" value="PIN 12" style="text;html=1;strokeColor=none;fillColor=none;align=center;verticalAlign=middle;whiteSpace=wrap;rounded=0;" vertex="1" parent="1">
          <mxGeometry x="305" y="490" width="50" height="20" as="geometry" />
        </mxCell>
        <mxCell id="cPWBTvRZ6FCTpw4stsLJ-30" value="PIN 13" style="text;html=1;strokeColor=none;fillColor=none;align=center;verticalAlign=middle;whiteSpace=wrap;rounded=0;" vertex="1" parent="1">
          <mxGeometry x="305" y="510" width="50" height="20" as="geometry" />
        </mxCell>
        <mxCell id="cPWBTvRZ6FCTpw4stsLJ-31" value="3 ~ 3.3 vcc" style="text;html=1;strokeColor=none;fillColor=none;align=center;verticalAlign=middle;whiteSpace=wrap;rounded=0;" vertex="1" parent="1">
          <mxGeometry x="530" y="360" width="60" height="30" as="geometry" />
        </mxCell>
        <mxCell id="cPWBTvRZ6FCTpw4stsLJ-32" value="5 ~ 12&lt;br&gt;vcd" style="text;html=1;strokeColor=none;fillColor=none;align=center;verticalAlign=middle;whiteSpace=wrap;rounded=0;" vertex="1" parent="1">
          <mxGeometry x="200" y="360" width="60" height="30" as="geometry" />
        </mxCell>
        <mxCell id="cPWBTvRZ6FCTpw4stsLJ-37" value="" style="shape=flexArrow;endArrow=classic;html=1;rounded=0;exitX=0.5;exitY=0;exitDx=0;exitDy=0;fillColor=#e3c800;strokeColor=#B09500;" edge="1" parent="1" source="cPWBTvRZ6FCTpw4stsLJ-36">
          <mxGeometry width="50" height="50" relative="1" as="geometry">
            <mxPoint x="235" y="840" as="sourcePoint" />
            <mxPoint x="260" y="880" as="targetPoint" />
          </mxGeometry>
        </mxCell>
        <mxCell id="cPWBTvRZ6FCTpw4stsLJ-36" value="Serial a PC" style="whiteSpace=wrap;html=1;aspect=fixed;" vertex="1" parent="1">
          <mxGeometry x="240" y="720" width="40" height="40" as="geometry" />
        </mxCell>
      </root>
    </mxGraphModel>
  </diagram>
</mxfile>
